<?xml version="1.0" encoding="UTF-8"?>
<svg id="Calque_1" xmlns="http://www.w3.org/2000/svg" version="1.1" viewBox="0 0 796.73 174.62">
  <!-- Generator: Adobe Illustrator 29.8.5, SVG Export Plug-In . SVG Version: 2.1.1 Build 2)  -->
  <defs>
    <style>
      .st0 {
        fill: #0abe9f;
      }

      .st1 {
        fill: #fff;
      }

      .st2 {
        fill: #0a0c11;
      }

      .st3 {
        fill: #ed4514;
      }
    </style>
  </defs>
  <rect class="st0" width="211.69" height="95.17"/>
  <g>
    <path class="st1" d="M283.69,78.47c0,4.6-2.3,6.89-6.89,6.89h-23.53c-4.47,0-6.7-2.3-6.7-6.89V16.85c0-4.63,2.23-6.94,6.7-6.94h23.53c4.6,0,6.89,2.31,6.89,6.94v17.65h-11.23v-14.9h-14.61v56.07h14.61v-15.86h11.23v18.66Z"/>
    <path class="st1" d="M346.4,78.47c0,4.6-2.28,6.89-6.85,6.89h-24.49c-4.47,0-6.7-2.3-6.7-6.89V16.85c0-4.63,2.23-6.94,6.7-6.94h24.49c4.56,0,6.85,2.31,6.85,6.94v61.61ZM335.12,75.67V19.6h-15.48v56.07h15.48Z"/>
    <path class="st1" d="M416.87,85.36h-10.85v-37.22c0-1.96.22-4.69.67-8.2l-9.74,38.52h-5.74l-9.79-38.52c.45,3.57.67,6.3.67,8.2v37.22h-10.85V9.91h10.65l11.86,41.7c.13.45.22,1.59.29,3.42,0-.8.1-1.94.29-3.42l11.86-41.7h10.66v75.45Z"/>
    <path class="st1" d="M487.29,85.36h-10.85v-37.22c0-1.96.22-4.69.67-8.2l-9.74,38.52h-5.74l-9.79-38.52c.45,3.57.67,6.3.67,8.2v37.22h-10.85V9.91h10.65l11.86,41.7c.13.45.22,1.59.29,3.42,0-.8.1-1.94.29-3.42l11.86-41.7h10.66v75.45Z"/>
    <path class="st1" d="M550.34,85.36h-11.18l-2.27-14.32h-14.13l-2.27,14.32h-11.14v-.19l14.61-75.36h11.86l14.51,75.55ZM535.29,61.35l-5.5-34.04-5.54,34.04h11.04Z"/>
    <path class="st1" d="M610.68,85.36h-9.88l-18.08-47.49c.48,2.31.72,4.13.72,5.45v42.04h-10.99V9.91h9.88l18.08,46.52c-.48-2.31-.72-4.13-.72-5.45V9.91h10.99v75.45Z"/>
    <path class="st1" d="M673.15,71.14c0,4.44-1.32,7.92-3.95,10.44s-6.19,3.78-10.65,3.78h-23V9.91h23c4.47,0,8.02,1.28,10.65,3.83,2.64,2.56,3.95,6.05,3.95,10.49v46.91ZM661.82,69.26V25.91c0-4.21-2.2-6.32-6.61-6.32h-8.39v56.07h8.1c4.6,0,6.89-2.14,6.89-6.41Z"/>
    <path class="st1" d="M735.71,78.47c0,4.6-2.28,6.89-6.85,6.89h-24.49c-4.47,0-6.7-2.3-6.7-6.89V16.85c0-4.63,2.23-6.94,6.7-6.94h24.49c4.56,0,6.85,2.31,6.85,6.94v61.61ZM724.43,75.67V19.6h-15.48v56.07h15.48Z"/>
    <path class="st1" d="M796.73,78.47c0,4.6-2.28,6.89-6.85,6.89h-22.71c-4.53,0-6.8-2.3-6.8-6.89v-17.98h11.28v15.38h13.79v-14.8l-22.61-21.41c-1.64-1.57-2.46-3.58-2.46-6.03v-16.78c0-4.63,2.27-6.94,6.8-6.94h22.71c4.56,0,6.85,2.28,6.85,6.85v16.87h-11.28v-14.22h-13.79v13.64l22.61,21.31c1.64,1.54,2.46,3.58,2.46,6.12v17.98Z"/>
  </g>
  <g>
    <path class="st3" d="M71.18,174.23v-30.82h10.41c4.2,0,7.52.63,9.96,1.89,2.45,1.26,4.39,3.11,5.83,5.56s2.17,5.11,2.17,8c0,2.06-.4,4.04-1.19,5.92-.79,1.89-1.93,3.54-3.4,4.97-1.5,1.47-3.25,2.58-5.24,3.34-1.16.46-2.23.76-3.2.92-.97.16-2.83.23-5.57.23h-9.77ZM81.12,147.34h-5.52v22.96h5.66c2.21,0,3.92-.15,5.15-.45s2.24-.68,3.06-1.15c.82-.46,1.57-1.04,2.24-1.71,2.18-2.21,3.27-5,3.27-8.37s-1.12-6.02-3.36-8.11c-.83-.78-1.77-1.42-2.84-1.92-1.07-.5-2.08-.83-3.04-.99-.96-.16-2.5-.24-4.62-.24Z"/>
    <path class="st3" d="M112.31,143.41h17.5v3.93h-13.08v9.41h12.64v3.96h-12.64v9.59h13.5v3.93h-17.92v-30.82Z"/>
    <path class="st3" d="M141.93,174.27v-30.91h9.79c2.95,0,5.29.8,7.05,2.39s2.63,3.73,2.63,6.41c0,1.8-.45,3.39-1.35,4.77-.9,1.38-2.13,2.39-3.69,3.02-1.56.63-3.8.94-6.72.94h-3.27v13.39h-4.44ZM150.95,147.29h-4.57v9.66h4.84c1.8,0,3.18-.42,4.15-1.27.97-.85,1.46-2.06,1.46-3.63,0-3.17-1.96-4.75-5.88-4.75Z"/>
    <path class="st3" d="M172.48,143.41h4.42v26.84h13.9v4.02h-18.32v-30.86Z"/>
    <path class="st3" d="M217.05,142.96c4.77,0,8.74,1.51,11.91,4.53s4.76,6.8,4.76,11.36-1.6,8.32-4.8,11.3c-3.2,2.98-7.24,4.47-12.11,4.47s-8.53-1.49-11.62-4.47c-3.1-2.98-4.65-6.72-4.65-11.21s1.56-8.42,4.68-11.44c3.12-3.02,7.07-4.53,11.83-4.53ZM217.23,147.16c-3.53,0-6.43,1.1-8.71,3.31-2.27,2.21-3.41,5.03-3.41,8.46s1.14,6.1,3.42,8.31c2.28,2.21,5.14,3.31,8.56,3.31s6.32-1.13,8.62-3.38c2.3-2.25,3.46-5.06,3.46-8.42s-1.15-6.02-3.46-8.25-5.13-3.35-8.49-3.35Z"/>
    <path class="st3" d="M261.33,143.41h5.36l-11.4,14.54v16.33h-4.53v-16.33l-11.4-14.54h5.33l8.26,10.64,8.37-10.64Z"/>
  </g>
  <path class="st3" d="M292.1,168.99c.75,0,1.39.26,1.92.77s.8,1.15.8,1.9-.26,1.36-.78,1.86c-.52.5-1.17.75-1.93.75s-1.38-.25-1.9-.75c-.52-.5-.77-1.12-.77-1.86s.26-1.38.77-1.9,1.15-.77,1.9-.77Z"/>
  <g>
    <path class="st3" d="M328.96,143.41h17.5v3.93h-13.08v9.41h12.64v3.96h-12.64v9.59h13.5v3.93h-17.92v-30.82Z"/>
    <path class="st3" d="M381.16,143.41h5.34l-12.35,14.89,13.21,15.98h-5.34l-10.51-12.79-10.61,12.79h-5.4l13.28-15.98-12.33-14.88h5.39l9.69,11.79,9.63-11.79Z"/>
    <path class="st3" d="M398.09,143.41h17.5v3.93h-13.08v9.41h12.64v3.96h-12.64v9.59h13.5v3.93h-17.92v-30.82Z"/>
    <path class="st3" d="M454.56,167.11v4.86c-3.24,1.77-6.98,2.65-11.22,2.65-3.45,0-6.37-.69-8.77-2.08-2.4-1.38-4.3-3.29-5.7-5.72-1.4-2.43-2.1-5.06-2.1-7.89,0-4.49,1.6-8.27,4.81-11.33s7.15-4.6,11.85-4.6c3.24,0,6.84.85,10.8,2.54v4.75c-3.61-2.06-7.14-3.09-10.58-3.09s-6.47,1.12-8.8,3.35c-2.33,2.23-3.5,5.03-3.5,8.38s1.15,6.17,3.45,8.35,5.24,3.27,8.82,3.27,7.39-1.15,10.96-3.45Z"/>
    <path class="st3" d="M488.71,143.41h4.44v17.52c0,2.37-.17,4.16-.52,5.37-.35,1.21-.77,2.21-1.28,3.02s-1.13,1.52-1.87,2.15c-2.45,2.11-5.64,3.16-9.59,3.16s-7.25-1.05-9.68-3.14c-.74-.65-1.36-1.37-1.87-2.18-.51-.8-.93-1.79-1.26-2.95-.33-1.16-.5-2.99-.5-5.48v-17.48h4.44v17.52c0,2.9.33,4.92.99,6.05.66,1.13,1.67,2.04,3.03,2.73,1.35.69,2.95,1.03,4.79,1.03,2.62,0,4.76-.68,6.41-2.05.87-.74,1.5-1.61,1.88-2.61.38-1,.57-2.72.57-5.15v-17.52Z"/>
    <path class="st3" d="M503.88,143.36h25.78v3.93h-10.76v26.98h-4.44v-26.98h-10.58v-3.93Z"/>
    <path class="st3" d="M541.08,143.41h17.5v3.93h-13.08v9.41h12.64v3.96h-12.64v9.59h13.5v3.93h-17.92v-30.82Z"/>
  </g>
  <path class="st3" d="M596.01,168.99c.75,0,1.39.26,1.92.77s.8,1.15.8,1.9-.26,1.36-.78,1.86c-.52.5-1.17.75-1.93.75s-1.38-.25-1.9-.75c-.52-.5-.77-1.12-.77-1.86s.26-1.38.77-1.9,1.15-.77,1.9-.77Z"/>
  <g>
    <path class="st3" d="M663.21,143.41h4.41l-12.48,31h-.97l-10.09-25.1-10.2,25.1h-.95l-12.44-31h4.45l8.51,21.28,8.56-21.28h4.18l8.6,21.28,8.42-21.28Z"/>
    <path class="st3" d="M678.32,143.41h4.42v30.86h-4.42v-30.86Z"/>
    <path class="st3" d="M721.35,143.41h4.2v30.86h-3.8l-20.64-23.77v23.77h-4.15v-30.86h3.58l20.81,23.97v-23.97Z"/>
  </g>
  <g>
    <g>
      <path d="M72.07,85.36h-11.18l-2.27-14.32h-14.13l-2.27,14.32h-11.14v-.19L45.7,9.81h11.86l14.51,75.55ZM57.03,61.35l-5.5-34.04-5.54,34.04h11.04Z"/>
      <path d="M106.14,85.36h-10.85v-11.67h10.85v11.67Z"/>
      <path d="M143.59,85.36h-11.28V9.91h11.28v75.45Z"/>
      <path d="M180.6,85.36h-10.85v-11.67h10.85v11.67Z"/>
    </g>
    <g>
      <path class="st2" d="M72.07,85.36h-11.18l-2.27-14.32h-14.13l-2.27,14.32h-11.14v-.19L45.7,9.81h11.86l14.51,75.55ZM57.03,61.35l-5.5-34.04-5.54,34.04h11.04Z"/>
      <path class="st2" d="M106.14,85.36h-10.85v-11.67h10.85v11.67Z"/>
      <path class="st2" d="M143.59,85.36h-11.28V9.91h11.28v75.45Z"/>
      <path class="st2" d="M180.6,85.36h-10.85v-11.67h10.85v11.67Z"/>
    </g>
  </g>
  <rect class="st3" x="756.73" y="156.51" width="40" height="5"/>
  <rect class="st3" y="156.51" width="40" height="5"/>
</svg>